<svg width="36" height="36" xmlns="http://www.w3.org/2000/svg" version="1.0">
    <g>
        <g>
            <rect rx="2" height="36" width="36" />
        </g>
        <g fill="#abedd8" transform="matrix(0.130059 0 0 0.132384 -17.3393 -22.5942)">
            <g xmlns="http://www.w3.org/2000/svg">
                <path
                    d="m223.07672,256.9098c9,0 16.4,-6.7 17.6,-15.4l30.4,0l13,18.8c0.5,0.7 1.2,1 2,1l73.7,0c1.3,0 2.4,-1.1 2.4,-2.4c0,-1.3 -1.1,-2.4 -2.4,-2.4l-72.5,0l-13,-18.8c-0.5,-0.7 -1.2,-1 -2,-1l-31.7,0c-1.2,-8.7 -8.6,-15.4 -17.6,-15.4c-9.8,0 -17.8,8 -17.8,17.8s8.1,17.8 17.9,17.8zm0,-30.7c7.1,0 12.9,5.8 12.9,12.9c0,0 0,0 0,0c0,0 0,0 0,0c0,7.1 -5.8,12.9 -12.9,12.9c-7.1,0 -12.9,-5.8 -12.9,-12.9s5.7,-12.9 12.9,-12.9z" />
                <path
                    d="m359.77672,284.3098l-76.7,0c-1.2,-8.7 -8.6,-15.4 -17.6,-15.4c-9.8,0 -17.8,8 -17.8,17.8s8,17.8 17.8,17.8c9,0 16.4,-6.7 17.6,-15.4l76.7,0c1.3,0 2.4,-1.1 2.4,-2.4c0,-1.3 -1.1,-2.4 -2.4,-2.4zm-94.3,15.4c-7.1,0 -12.9,-5.8 -12.9,-12.9s5.8,-13 12.9,-13c7.1,0 12.9,5.8 12.9,12.9c0,0 0,0 0,0s0,0 0,0c0,7.2 -5.8,13 -12.9,13z" />
                <path
                    d="m359.77672,315.1098l-66.9,0c-0.8,0 -1.6,0.4 -2.1,1.1l-9.4,15l-41.2,0l-10.2,-19c-0.4,-0.8 -1.2,-1.3 -2.1,-1.3l-21.6,0c-1.2,-8.7 -8.6,-15.4 -17.6,-15.4c-9.8,0 -17.8,8 -17.8,17.8s8,17.8 17.8,17.8c9,0 16.4,-6.7 17.6,-15.4l20.1,0l10.2,19c0.4,0.8 1.2,1.3 2.1,1.3l44,0c0.8,0 1.6,-0.4 2.1,-1.1l9.4,-15l65.5,0c1.3,0 2.4,-1.1 2.4,-2.4c0.1,-1.3 -1,-2.4 -2.3,-2.4zm-171.1,11.3c-7.1,0 -12.9,-5.8 -12.9,-12.9s5.8,-12.9 12.9,-12.9c7.1,0 12.9,5.8 12.9,12.9c0,0 0,0 0,0s0,0 0,0c0.1,7.1 -5.7,12.9 -12.9,12.9z" />
                <path
                    d="m359.77672,343.4098l-38.6,0c-0.9,0 -1.7,0.5 -2.1,1.2l-11.4,19.4l-58.2,0c-1.2,-8.7 -8.6,-15.4 -17.6,-15.4c-9.8,0 -17.8,8 -17.8,17.8c0,9.8 8,17.8 17.8,17.8c9,0 16.4,-6.7 17.6,-15.4l59.6,0c0.9,0 1.7,-0.5 2.1,-1.2l11.4,-19.4l37.2,0c1.3,0 2.4,-1.1 2.4,-2.4c0,-1.3 -1.1,-2.4 -2.4,-2.4zm-127.9,36c-7.1,0 -12.9,-5.8 -12.9,-12.9c0,-7.1 5.8,-12.9 12.9,-12.9c7.1,0 12.9,5.8 12.9,12.9c0.1,7.1 -5.7,12.9 -12.9,12.9z" />
            </g>
        </g>
    </g>

</svg>